<svg id="a54af5c6-4760-4b25-aa2c-d6b9993b6930" data-name="图层 1" xmlns="http://www.w3.org/2000/svg" viewBox="0 0 48 48"><defs><style>.af9e9816-afb8-43d2-b5ca-f79884c6f04c{fill:#06cc60;fill-rule:evenodd;}</style></defs><title>微信</title><g id="afb15b20-2332-4b3b-8761-d4e5a03fb39f" data-name="画板"><g id="ab04db30-823f-4e2c-bcba-eebf10ff6b65" data-name="symbol"><path id="ef1352dc-ffe5-4044-969b-4d8091ebeb6a" data-name="Shape-Copy" class="af9e9816-afb8-43d2-b5ca-f79884c6f04c" d="M37,29.31a1.62,1.62,0,1,1,1.63-1.62A1.65,1.65,0,0,1,37,29.31m-8,0a1.62,1.62,0,1,1,1.63-1.62,1.65,1.65,0,0,1-1.63,1.62m11.93,9.06A9.26,9.26,0,0,0,45,30.9c0-5.48-5.35-9.9-12-9.9s-12,4.42-12,9.9,5.35,9.91,12,9.91a14.46,14.46,0,0,0,3.93-.53.74.74,0,0,1,.35-.05,1.44,1.44,0,0,1,.63.18l2.63,1.5c.09.05.13.09.22.09a.39.39,0,0,0,.4-.4c0-.09,0-.17,0-.31s-.36-1.24-.54-2a.59.59,0,0,1,0-.26.63.63,0,0,1,.31-.67"/><path id="ec65d648-5c15-42b3-849c-588c8475aeff" data-name="Shape-Copy-2" class="af9e9816-afb8-43d2-b5ca-f79884c6f04c" d="M24.33,19.86A1.84,1.84,0,1,1,26.22,18a1.87,1.87,0,0,1-1.89,1.83m-9.66,0A1.84,1.84,0,1,1,16.55,18a1.87,1.87,0,0,1-1.88,1.83M19.61,10C11.56,10,5,15.26,5,21.8a10.91,10.91,0,0,0,5.07,8.9,1,1,0,0,1,.4.79c0,.09,0,.22,0,.31-.23.88-.63,2.32-.68,2.37a1.13,1.13,0,0,0-.09.35.5.5,0,0,0,.5.48.58.58,0,0,0,.27-.09l3.21-1.8a1.6,1.6,0,0,1,.77-.22,1.15,1.15,0,0,1,.41,0,19,19,0,0,0,4.75.66h.81a9.06,9.06,0,0,1-.5-2.9c0-5.92,6-10.74,13.31-10.74H34c-1-5.66-7.1-10-14.39-10"/></g></g></svg>